<svg width="51" height="53" viewBox="0 0 51 53" fill="none" xmlns="http://www.w3.org/2000/svg">
<path d="M12.5494 12.3456C19.46 12.3456 25.0494 18.1721 25.0494 25.3759V26.5942H1.21814C0.608382 26.5942 0.100251 26.0645 0.0494385 25.3759C0.100251 18.1721 5.68968 12.3456 12.5494 12.3456Z" fill="#F6B704"/>
<path d="M38.6673 13.5109C38.6673 20.7146 33.0779 26.5412 26.1673 26.5412H25.0494V1.69887C25.0494 1.06325 25.5576 0.480591 26.1673 0.480591C33.0779 0.53356 38.6673 6.36012 38.6673 13.5109Z" fill="#E54335"/>
<path d="M37.5494 40.7368C30.6389 40.7368 25.0494 34.9103 25.0494 27.7595V26.5412H48.8807C49.4905 26.5412 50.0494 27.0709 50.0494 27.7065C49.9986 34.9103 44.4092 40.7368 37.5494 40.7368Z" fill="#4280EF"/>
<path d="M11.4315 39.5715C11.4315 32.3678 17.021 26.5412 23.9315 26.5412H25.0494V51.3835C25.0494 52.0192 24.5413 52.5488 23.8807 52.6018C17.0209 52.5488 11.4315 46.7223 11.4315 39.5715Z" fill="#34A353"/>
</svg>
